<?xml version="1.0" encoding="UTF-8" standalone="no"?>
<svg
   xmlns:dc="http://purl.org/dc/elements/1.1/"
   xmlns:cc="http://creativecommons.org/ns#"
   xmlns:rdf="http://www.w3.org/1999/02/22-rdf-syntax-ns#"
   xmlns:svg="http://www.w3.org/2000/svg"
   xmlns="http://www.w3.org/2000/svg"
   id="svg8"
   version="1.1"
   viewBox="0 0 45.933094 12.223695"
   height="12.223695mm"
   width="45.933094mm">
  <metadata
     id="metadata5">
    <rdf:RDF>
      <cc:Work
         rdf:about="">
        <dc:format>image/svg+xml</dc:format>
        <dc:type
           rdf:resource="http://purl.org/dc/dcmitype/StillImage" />
        <dc:title></dc:title>
      </cc:Work>
    </rdf:RDF>
  </metadata>
  <g
     transform="translate(-6.0213416,-5.2832159)"
     id="layer1">
    <path
       d="m 12.733546,5.9125795 c 0.166158,-0.024694 0.316794,-0.043039 0.452261,-0.055033 0.135467,-0.0127 0.255411,-0.018697 0.359833,-0.018697 0.111125,0 0.235656,0.006 0.373945,0.018697 0.138642,0.011994 0.287867,0.030339 0.447675,0.055033 v 5.1692525 h 2.132541 c 0.03069,0.154164 0.05045,0.287867 0.05997,0.401461 0.0092,0.1143 0.01411,0.216959 0.01411,0.309739 0,0.104422 -0.0049,0.213431 -0.01411,0.327731 -0.0095,0.113594 -0.02928,0.250472 -0.05997,0.410633 h -3.766255 z m 4.395611,1.4216944 h -1.541639 c -0.05539,-0.2649361 -0.0829,-0.508 -0.0829,-0.7295444 0,-0.2028472 0.02752,-0.4399139 0.0829,-0.7104944 h 4.716992 c 0.02469,0.1351138 0.04339,0.2614083 0.05539,0.3785305 0.01235,0.1171222 0.0187,0.2275417 0.0187,0.3319639 0,0.2032 -0.02469,0.4466166 -0.07408,0.7295444 h -1.541639 v 5.1696051 c -0.325967,0.05539 -0.5969,0.0829 -0.812095,0.0829 -0.227894,0 -0.501297,-0.02752 -0.821619,-0.0829 z m 26.495374,0 h -1.540933 c -0.05609,-0.2649361 -0.08361,-0.508 -0.08361,-0.7295444 0,-0.2028472 0.02752,-0.4399139 0.08361,-0.7104944 h 4.716286 c 0.0247,0.1351138 0.04339,0.2614083 0.05539,0.3785305 0.01235,0.1171222 0.0187,0.2275417 0.0187,0.3319639 0,0.2032 -0.02505,0.4466166 -0.07408,0.7295444 h -1.541286 v 5.1696051 c -0.326319,0.05539 -0.597253,0.0829 -0.8128,0.0829 -0.227542,0 -0.501297,-0.02752 -0.821267,-0.0829 z m 7.294034,1.7353139 c 0,0.2155472 -0.02752,0.4554361 -0.08326,0.7203722 H 49.05413 v 1.310569 h 2.317044 c 0.05503,0.258586 0.08326,0.492478 0.08326,0.701675 0,0.227542 -0.02822,0.470606 -0.08326,0.729192 H 47.420067 V 5.8942351 h 3.895725 c 0.0247,0.1351138 0.04304,0.2614083 0.05539,0.3785305 0.01235,0.1171222 0.01834,0.2275417 0.01834,0.3319639 0,0.2032 -0.02469,0.4466166 -0.07373,0.7295444 h -2.261658 v 1.0152944 h 1.781175 c 0.05574,0.2712861 0.08326,0.5108222 0.08326,0.7200195"
       style="fill:#e30613;fill-opacity:1;fill-rule:nonzero;stroke:none;stroke-width:0.35277778"
       id="path1415" />
    <path
       d="m 9.4151776,7.5862631 0.6039554,2.3967722 c -0.185561,0.020109 -0.3781776,0.031045 -0.576086,0.031045 -0.22225,0 -0.4377972,-0.014464 -0.6438194,-0.039864 z M 10.321111,5.848127 C 10.142605,5.8294298 9.9838554,5.8142604 9.8452137,5.8019131 9.706572,5.7895659 9.5785137,5.7832159 9.4613915,5.7832159 c -0.1414639,0 -0.2818695,0.00635 -0.4208639,0.018697 -0.1382889,0.012347 -0.2878667,0.027517 -0.4483805,0.046214 L 6.5213416,12.449657 c 0.1788583,0.03034 0.3404305,0.05397 0.4854222,0.06915 0.1446388,0.01517 0.2726972,0.02328 0.3838222,0.02328 0.1107722,0 0.2250722,-0.0063 0.3418416,-0.0187 0.1171223,-0.01199 0.2465917,-0.03069 0.3884084,-0.05503 L 8.4647943,11.22058 c 0.3026833,0.05962 0.6325305,0.09243 0.9782527,0.09243 0.3167945,0 0.619125,-0.02858 0.900289,-0.07867 l 0.329494,1.234017 c 0.141817,0.02434 0.274109,0.04304 0.397581,0.05503 0.123119,0.01235 0.246592,0.0187 0.369711,0.0187 0.264936,0 0.572911,-0.02787 0.924631,-0.08325 z"
       style="fill:#e30613;fill-opacity:1;fill-rule:nonzero;stroke:none;stroke-width:0.35277778"
       id="path1419" />
    <path
       d="m 39.628971,7.5862631 0.603603,2.3967722 c -0.185209,0.020109 -0.377472,0.031045 -0.575734,0.031045 -0.222602,0 -0.437797,-0.014464 -0.643819,-0.039864 z M 40.534552,5.848127 C 40.356399,5.82943 40.197296,5.81426 40.058654,5.801913 39.920365,5.789566 39.792307,5.783216 39.675185,5.783216 c -0.141817,0 -0.28187,0.00635 -0.420511,0.018697 C 39.116032,5.81426 38.966102,5.82943 38.80594,5.848127 l -2.070452,6.60153 c 0.178505,0.03034 0.340078,0.05397 0.485069,0.06915 0.144992,0.01517 0.27305,0.02328 0.383822,0.02328 0.110773,0 0.22472,-0.0063 0.341842,-0.0187 0.117122,-0.01199 0.246592,-0.03069 0.388761,-0.05503 l 0.343253,-1.247775 c 0.302683,0.05962 0.63253,0.09243 0.978605,0.09243 0.316795,0 0.619125,-0.02858 0.900289,-0.07867 l 0.329495,1.234017 c 0.141464,0.02434 0.274108,0.04304 0.39758,0.05503 0.12312,0.01235 0.246239,0.0187 0.369359,0.0187 0.265289,0 0.573263,-0.02787 0.924983,-0.08325 z"
       style="fill:#e30613;fill-opacity:1;fill-rule:nonzero;stroke:none;stroke-width:0.35277778"
       id="path1423" />
    <path
       d="m 24.434091,9.0697641 c 0,0.2151944 -0.02752,0.4554361 -0.08326,0.7200194 h -1.781527 v 1.3109225 h 2.317044 c 0.05574,0.258233 0.08326,0.492125 0.08326,0.701322 0,0.227894 -0.02752,0.470958 -0.08326,0.729544 H 20.935594 V 5.8940586 h 3.895725 c 0.02434,0.1354667 0.04304,0.2617611 0.05503,0.3785306 0.01235,0.1171222 0.0187,0.2275416 0.0187,0.3323166 0,0.2032 -0.02469,0.4462639 -0.07373,0.7295444 h -2.262011 v 1.0152945 h 1.781527 c 0.05574,0.2709333 0.08326,0.5108222 0.08326,0.7200194 M 25.79617,5.9127558 c 0.301272,-0.031044 0.579967,-0.059972 0.835378,-0.087842 0.255411,-0.02787 0.52458,-0.041628 0.807861,-0.041628 0.338314,0 0.676628,0.032456 1.014941,0.096661 0.338667,0.064911 0.640645,0.1774472 0.904875,0.3372556 0.264937,0.1605138 0.480131,0.3785305 0.646289,0.655461 0.165806,0.2769306 0.249414,0.6279445 0.249414,1.0523361 0,0.2278945 -0.02681,0.4325056 -0.07867,0.6141861 -0.05256,0.1813278 -0.120297,0.3429 -0.2032,0.4843639 -0.08326,0.1414639 -0.175331,0.2645833 -0.276931,0.3693583 -0.1016,0.1044223 -0.201436,0.193675 -0.299861,0.2674056 l 1.439686,2.8433886 c -0.147461,0.02434 -0.30868,0.04304 -0.484364,0.05539 -0.17533,0.01235 -0.333727,0.01834 -0.475544,0.01834 -0.122767,0 -0.266347,-0.006 -0.428978,-0.01834 -0.163336,-0.01235 -0.306211,-0.03104 -0.42933,-0.05539 l -1.310923,-3.0187192 0.08326,-0.046214 c 0.07373,-0.036689 0.155222,-0.098072 0.244475,-0.1845027 0.08925,-0.086078 0.172155,-0.1890889 0.249061,-0.3090334 0.07691,-0.1202972 0.141817,-0.2536472 0.194028,-0.4018138 0.05256,-0.1474611 0.07832,-0.301625 0.07832,-0.4614334 0,-0.3076222 -0.08573,-0.5323416 -0.258233,-0.6738055 -0.172508,-0.1418167 -0.384528,-0.2123722 -0.637117,-0.2123722 -0.06138,0 -0.113594,0.00317 -0.156986,0.00917 -0.04304,0.006 -0.07055,0.012347 -0.0829,0.018344 V 12.5037 c -0.32632,0.05539 -0.593725,0.0829 -0.802923,0.0829 -0.227541,0 -0.502002,-0.02752 -0.821619,-0.0829 z m 5.560483,0 c 0.135467,-0.024694 0.258586,-0.043392 0.369711,-0.055386 0.11042,-0.012347 0.218017,-0.018697 0.322792,-0.018697 0.111125,0 0.226483,0.00776 0.346428,0.022931 0.119591,0.015522 0.222602,0.032456 0.30868,0.051153 l 2.142067,3.6184416 V 5.9127558 c 0.159455,-0.024694 0.3048,-0.043392 0.433917,-0.055386 0.128763,-0.012347 0.245886,-0.018697 0.350661,-0.018697 0.104422,0 0.215194,0.00635 0.331964,0.018697 0.117122,0.011995 0.240594,0.030692 0.369711,0.055386 l -0.0095,6.5909472 c -0.06138,0.01834 -0.150989,0.03669 -0.267759,0.05539 -0.117122,0.01834 -0.242711,0.02752 -0.378177,0.02752 -0.153812,0 -0.2921,-0.01058 -0.415573,-0.03246 -0.123119,-0.02117 -0.212372,-0.03845 -0.267758,-0.05045 L 32.842902,8.9036058 v 3.6000972 c -0.270581,0.05539 -0.51682,0.0829 -0.738364,0.0829 -0.221544,0 -0.470605,-0.02752 -0.747889,-0.0829 z"
       style="fill:#e30613;fill-opacity:1;fill-rule:nonzero;stroke:none;stroke-width:0.35277778"
       id="path1427" />
    <path
       d="m 30.507725,15.632066 c -0.01411,0.06068 -0.02505,0.128411 -0.02152,0.221544 0,0.164042 0.09666,0.253648 0.278694,0.253648 0.446617,0 0.717903,-0.532342 0.717903,-0.917928 0,-0.214489 -0.09278,-0.410986 -0.328436,-0.410986 -0.257528,0 -0.521406,0.264583 -0.607131,0.671689 z m 0.375003,-1.867958 -0.2286,1.12148 h 0.0074 c 0.153458,-0.232128 0.375003,-0.353483 0.607131,-0.353483 0.37853,0 0.521052,0.313972 0.521052,0.621594 0,0.531989 -0.381705,1.185686 -1.074913,1.185686 -0.303389,0 -0.531989,-0.125236 -0.531989,-0.443088 0,-0.08537 0.01446,-0.189089 0.0321,-0.271639 l 0.371475,-1.86055 z"
       style="fill:#000000;fill-opacity:1;fill-rule:nonzero;stroke:none;stroke-width:0.35277778"
       id="path1431" />
    <path
       d="m 32.921642,14.764268 c -0.282222,0 -0.492831,0.275167 -0.567972,0.546453 0.467783,0.0071 0.832203,-0.0575 0.832203,-0.328789 0,-0.138995 -0.107245,-0.217664 -0.264231,-0.217664 m 0.328436,1.439333 c -0.128411,0.07126 -0.339372,0.13582 -0.5715,0.13582 -0.4572,0 -0.656872,-0.314678 -0.656872,-0.696736 0,-0.521406 0.385586,-1.110545 0.942622,-1.110545 0.328789,0 0.507295,0.196145 0.507295,0.446264 0,0.453672 -0.510823,0.5715 -1.150056,0.560917 -0.01411,0.07479 -0.0035,0.235655 0.03563,0.328436 0.06809,0.156986 0.20708,0.232128 0.385938,0.232128 0.203553,0 0.357012,-0.06068 0.464256,-0.117828 z"
       style="fill:#000000;fill-opacity:1;fill-rule:nonzero;stroke:none;stroke-width:0.35277778"
       id="path1435" />
    <path
       d="m 34.960204,14.832036 c -0.05362,-0.0321 -0.157339,-0.06068 -0.28575,-0.06068 -0.396522,0 -0.732367,0.42157 -0.732367,0.903817 0,0.267758 0.118181,0.421217 0.300214,0.421217 0.278695,0 0.539397,-0.314325 0.607131,-0.667809 z m -0.414161,2.174875 0.210608,-1.021292 h -0.0071 c -0.146756,0.2286 -0.382411,0.353484 -0.600075,0.353484 -0.3429,0 -0.51435,-0.289278 -0.51435,-0.628298 0,-0.578908 0.428625,-1.17863 1.099961,-1.17863 0.2286,0 0.428625,0.05715 0.553508,0.1143 l -0.446264,2.360436 z"
       style="fill:#000000;fill-opacity:1;fill-rule:nonzero;stroke:none;stroke-width:0.35277778"
       id="path1439" />
    <path
       d="m 37.180905,14.571228 -0.232128,1.225197 c -0.03916,0.192617 -0.06068,0.360539 -0.07867,0.503414 h -0.264231 l 0.04304,-0.324908 h -0.0071 c -0.153812,0.225072 -0.378884,0.364419 -0.607484,0.364419 -0.221191,0 -0.456847,-0.107244 -0.456847,-0.500239 0,-0.0822 0.01058,-0.178505 0.03175,-0.292805 l 0.189442,-0.975078 h 0.292805 l -0.182033,0.964494 c -0.01799,0.09631 -0.02858,0.178506 -0.02858,0.253648 0,0.178505 0.07161,0.299861 0.274814,0.299861 0.214489,0 0.489655,-0.253647 0.560916,-0.632178 l 0.167923,-0.885825 z"
       style="fill:#000000;fill-opacity:1;fill-rule:nonzero;stroke:none;stroke-width:0.35277778"
       id="path1443" />
    <path
       d="m 38.291132,14.764268 c -0.282222,0 -0.492831,0.275167 -0.567619,0.546453 0.46743,0.0071 0.83185,-0.0575 0.83185,-0.328789 0,-0.138995 -0.107245,-0.217664 -0.264231,-0.217664 m 0.328436,1.439333 c -0.128411,0.07126 -0.339019,0.13582 -0.571147,0.13582 -0.4572,0 -0.657225,-0.314678 -0.657225,-0.696736 0,-0.521406 0.385586,-1.110545 0.942622,-1.110545 0.328789,0 0.507295,0.196145 0.507295,0.446264 0,0.453672 -0.510823,0.5715 -1.150056,0.560917 -0.01411,0.07479 -0.0035,0.235655 0.03598,0.328436 0.06773,0.156986 0.206728,0.232128 0.385586,0.232128 0.203553,0 0.357012,-0.06068 0.464256,-0.117828 z"
       style="fill:#000000;fill-opacity:1;fill-rule:nonzero;stroke:none;stroke-width:0.35277778"
       id="path1447" />
    <path
       d="m 38.994112,16.299909 0.2286,-1.224844 c 0.03563,-0.19297 0.06068,-0.360892 0.07832,-0.503767 h 0.260702 l -0.04304,0.325261 h 0.0074 c 0.160867,-0.243064 0.37853,-0.364419 0.60713,-0.364419 0.264584,0 0.389467,0.167922 0.403578,0.385586 0.153811,-0.249767 0.375003,-0.382059 0.632178,-0.385586 0.200025,0 0.421569,0.128411 0.421569,0.453672 0,0.07832 -0.01094,0.196144 -0.02857,0.292453 l -0.192969,1.021644 h -0.289278 l 0.185914,-0.996244 c 0.01411,-0.06809 0.0247,-0.153812 0.0247,-0.225073 0,-0.182033 -0.06773,-0.300214 -0.26035,-0.300214 -0.214489,0 -0.471664,0.25012 -0.542925,0.635706 l -0.164395,0.885825 h -0.28575 l 0.192617,-1.014236 c 0.01446,-0.07867 0.02187,-0.142875 0.02187,-0.210608 0,-0.146403 -0.03951,-0.296687 -0.257528,-0.296687 -0.214136,0 -0.485422,0.28575 -0.553508,0.653698 l -0.156986,0.867833 z"
       style="fill:#000000;fill-opacity:1;fill-rule:nonzero;stroke:none;stroke-width:0.35277778"
       id="path1451" />
    <path
       d="m 42.857134,15.617743 c 0,0.282222 0.157339,0.485775 0.407458,0.485775 0.349603,0 0.614186,-0.449792 0.614186,-0.853722 0,-0.200025 -0.09278,-0.481895 -0.40393,-0.481895 -0.371122,0 -0.617714,0.45332 -0.617714,0.849842 m 1.328561,-0.367947 c 0,0.535869 -0.37853,1.089378 -0.960614,1.089378 -0.432153,0 -0.675216,-0.321381 -0.675216,-0.710495 0,-0.5715 0.396522,-1.096433 0.957086,-1.096433 0.468136,0 0.678744,0.35313 0.678744,0.71755"
       style="fill:#000000;fill-opacity:1;fill-rule:nonzero;stroke:none;stroke-width:0.35277778"
       id="path1455" />
    <path
       d="m 44.392423,16.299909 0.2286,-1.224844 c 0.03916,-0.19297 0.06421,-0.360892 0.08184,-0.503767 h 0.264231 l -0.04269,0.339372 h 0.0071 c 0.153812,-0.242711 0.389467,-0.37853 0.639234,-0.37853 0.20708,0 0.439561,0.117827 0.439561,0.478719 0,0.07832 -0.01446,0.185561 -0.0321,0.278342 l -0.192969,1.010708 h -0.292806 l 0.189442,-1.000125 c 0.01023,-0.06773 0.02117,-0.14605 0.02117,-0.221192 0,-0.17145 -0.06773,-0.300214 -0.271286,-0.300214 -0.210608,0 -0.510822,0.253648 -0.589491,0.682273 l -0.156986,0.839258 z"
       style="fill:#000000;fill-opacity:1;fill-rule:nonzero;stroke:none;stroke-width:0.35277778"
       id="path1459" />
    <path
       d="m 46.29894,16.299909 0.482247,-2.535767 h 0.296334 l -0.482248,2.535767 z"
       style="fill:#000000;fill-opacity:1;fill-rule:nonzero;stroke:none;stroke-width:0.35277778"
       id="path1463" />
    <path
       d="m 47.498526,14.092896 c 0.0035,-0.1143 0.08925,-0.200025 0.192969,-0.200025 0.106892,0 0.178506,0.07832 0.178506,0.185561 -0.0035,0.117828 -0.08573,0.200025 -0.203553,0.200025 -0.103716,0 -0.167922,-0.07867 -0.167922,-0.185561 m -0.385586,2.206978 0.331964,-1.728611 h 0.292805 l -0.328436,1.728611 z"
       style="fill:#000000;fill-opacity:1;fill-rule:nonzero;stroke:none;stroke-width:0.35277778"
       id="path1467" />
    <path
       d="m 47.933995,16.299909 0.2286,-1.224844 c 0.03916,-0.19297 0.06421,-0.360892 0.0822,-0.503767 h 0.264231 l -0.04304,0.339372 h 0.0074 c 0.153459,-0.242711 0.389114,-0.37853 0.639234,-0.37853 0.20708,0 0.439208,0.117827 0.439208,0.478719 0,0.07832 -0.01446,0.185561 -0.0321,0.278342 l -0.192969,1.010708 h -0.292806 l 0.189442,-1.000125 c 0.01023,-0.06773 0.02117,-0.14605 0.02117,-0.221192 0,-0.17145 -0.06773,-0.300214 -0.271286,-0.300214 -0.210608,0 -0.510822,0.253648 -0.589491,0.682273 l -0.156986,0.839258 z"
       style="fill:#000000;fill-opacity:1;fill-rule:nonzero;stroke:none;stroke-width:0.35277778"
       id="path1471" />
    <path
       d="m 50.754841,14.764268 c -0.282222,0 -0.492831,0.275167 -0.567972,0.546453 0.467783,0.0071 0.832203,-0.0575 0.832203,-0.328789 0,-0.138995 -0.107245,-0.217664 -0.264231,-0.217664 m 0.328436,1.439333 c -0.128411,0.07126 -0.339372,0.13582 -0.5715,0.13582 -0.4572,0 -0.656872,-0.314678 -0.656872,-0.696736 0,-0.521406 0.385586,-1.110545 0.942622,-1.110545 0.328789,0 0.507295,0.196145 0.507295,0.446264 0,0.453672 -0.510823,0.5715 -1.150056,0.560917 -0.01411,0.07479 -0.0035,0.235655 0.03563,0.328436 0.06809,0.156986 0.20708,0.232128 0.385586,0.232128 0.203905,0 0.357364,-0.06068 0.464608,-0.117828 z"
       style="fill:#000000;fill-opacity:1;fill-rule:nonzero;stroke:none;stroke-width:0.35277778"
       id="path1475" />
  </g>
</svg>
