<svg width="292" height="42" viewBox="0 0 292 42" fill="none" xmlns="http://www.w3.org/2000/svg">
<g clip-path="url(#clip0_19:17)">
<path d="M44.629 31.0861L14.3316 38.0139L13.145 35.8823L40.3018 29.4874C40.3445 29.0693 40.3445 28.6479 40.3018 28.2297C40.1468 26.9068 39.7203 25.6301 39.049 24.4796C38.3778 23.3291 37.4763 22.3296 36.401 21.5435L35.8823 28.8977L12.47 34.2196L6.62227 23.5615C5.53594 24.9274 4.86729 26.5781 4.69671 28.315C3.98617 34.7667 10.7931 40.3302 22.4602 40.3302C28.5282 40.3302 33.9212 38.7884 37.5734 36.3654H41.1261C37.0831 39.7618 30.2903 42.0497 22.4673 42.0497C9.18021 42.0497 -0.809975 35.6549 0.0853049 28.3434C0.426364 25.5581 2.30219 23.0428 5.20119 21.0462L0.831368 13.0953L12.9532 17.6001L13.5785 17.4366L17.2022 0.0497169L28.315 14.3813L37.6373 4.59719L36.607 19.1775C41.3392 21.3091 44.5509 24.5989 44.9772 28.3434C45.0671 29.2863 44.9582 30.2376 44.6575 31.1358L44.629 31.0861Z" fill="#FCBE30"/>
<path d="M237.519 26.2971H243.701V32.2656H237.519V26.2971Z" fill="white"/>
<path fill-rule="evenodd" clip-rule="evenodd" d="M267.959 28.5495C267.959 29.7787 267.248 30.6811 265.898 31.2282C264.186 31.9387 263.056 32.2585 258.629 32.2585C254.203 32.2585 253.066 31.9032 251.332 31.1927C249.954 30.6337 249.264 29.7527 249.264 28.5495V22.0907C249.264 19.2485 251.19 17.8274 258.864 17.8274H261.344V13.3226H267.959V28.5495ZM261.344 28.3647V19.3054H257.926C257.146 19.2247 256.361 19.3833 255.673 19.7601C255.162 20.2338 254.906 21.1646 254.906 22.5525V28.3647C254.906 29.459 255.148 30.1837 255.617 30.539C256.245 30.8835 256.964 31.0296 257.677 30.9582C258.75 30.9582 260.42 30.809 260.789 30.5035C261.159 30.1979 261.344 29.4803 261.344 28.3719V28.3647Z" fill="white"/>
<path fill-rule="evenodd" clip-rule="evenodd" d="M291.179 28.5495C291.179 29.7479 290.49 30.6148 289.112 31.1501C287.385 31.8606 286.234 32.223 281.85 32.223C277.466 32.223 276.322 31.8748 274.588 31.1927C273.167 30.6527 272.457 29.7716 272.457 28.5495V21.977C272.457 19.1988 274.304 17.8132 281.821 17.8132C289.339 17.8132 291.151 19.1988 291.151 21.977V25.1105H279.065V28.315C279.065 29.4377 279.278 30.1624 279.711 30.4964C280.365 30.8425 281.106 30.9883 281.843 30.9156C282.559 30.9921 283.281 30.8457 283.91 30.4964C284.344 30.1411 284.557 29.4021 284.557 28.2795V27.0929H291.172V28.514L291.179 28.5495ZM284.529 23.6965V22.0907C284.529 20.7691 284.429 19.959 284.223 19.6819C284.017 19.4048 283.15 19.1135 281.85 19.1135C280.55 19.1135 279.825 19.2983 279.519 19.6678C279.214 20.0372 279.065 20.8685 279.065 22.1688V23.6965H284.529Z" fill="white"/>
<path d="M75.3954 29.0255C75.3954 31.7256 71.6059 33.0756 64.0268 33.0756C56.4169 33.0756 54.3208 31.7256 54.3208 29.0255V13.9337C54.3208 12.7542 55.0479 11.8921 56.5022 11.3473C58.2501 10.6865 60.4741 10.3597 64.8794 10.3597C69.2848 10.3597 71.4732 10.6865 73.2212 11.3473C74.6801 11.8921 75.4072 12.7447 75.4025 13.9052V16.4916H68.2119V14.1397C68.2119 13.0952 68.02 12.4273 67.6292 12.1289C67.3592 11.9015 65.8813 11.7878 64.9078 11.7878C63.9972 11.7452 63.0861 11.8606 62.2149 12.1289C61.7815 12.4273 61.5683 13.0952 61.5683 14.1397V28.6845C61.5013 29.4669 61.5931 30.2548 61.8383 31.0009C62.1154 31.4059 63.707 31.6119 64.9078 31.6119C66.1087 31.6119 67.6647 31.4059 67.9347 31.0009C68.1875 30.2565 68.2819 29.4675 68.2119 28.6845V26.0626H75.4309V29.0255H75.3954Z" fill="white"/>
<path fill-rule="evenodd" clip-rule="evenodd" d="M93.9193 21.9201V16.8256C93.9193 15.639 93.8056 14.9 93.564 14.5945C93.3224 14.289 91.7876 14.1326 90.6508 14.1326C89.5139 14.1326 87.9791 14.2819 87.7376 14.5945C87.4237 15.2936 87.3011 16.0636 87.3823 16.8256V21.9201H93.9193ZM90.6508 13.01C97.3299 13.01 99.7741 14.2321 99.7741 16.6764V31.9672H93.8837V23.4407H87.3965V31.9672H81.499V16.6621C81.499 14.2179 83.9504 12.9958 90.6224 12.9958L90.6508 13.01Z" fill="white"/>
<path d="M124.266 29.2316C124.266 31.2495 121.758 32.2585 115.029 32.2585C108.3 32.2585 105.87 31.0932 105.87 28.7555V26.3255H112.613V28.4145C112.613 29.6153 112.791 30.3898 113.153 30.7309C113.724 31.0487 114.381 31.178 115.029 31.1003C115.675 31.1661 116.324 31.0242 116.884 30.6953C117.218 30.4182 117.381 29.7716 117.381 28.7555V23.7107C117.381 23.166 116.313 22.6923 114.177 22.2896C112.449 22.0195 110.743 21.6325 109.068 21.1315C106.936 20.5393 105.87 19.7222 105.87 18.6801V15.3405C105.87 13.7703 108.357 12.9887 115.029 12.9887C118.916 12.9887 120.785 13.2871 122.355 13.8768C123.627 14.3316 124.259 15.0705 124.259 16.0866V18.2182H118.305V16.4135C118.305 15.4187 118.127 14.7721 117.765 14.4737C116.877 14.2305 115.956 14.1274 115.036 14.1682C114.111 14.139 113.186 14.2201 112.279 14.4097C112.113 14.4855 111.975 14.611 111.883 14.7688C111.792 14.9267 111.751 15.109 111.768 15.2908V19.3835C111.768 19.8098 113.701 20.2077 115.853 20.5701C117.598 20.8421 119.318 21.2532 120.998 21.7994C123.179 22.4602 124.266 23.3412 124.266 24.4568V29.26V29.2316Z" fill="white"/>
<path d="M145.17 23.4549H136.687V30.3685H146.805V31.9672H130.356V12.9958H146.769V14.5945H136.687V21.8846H145.17V23.4549Z" fill="white"/>
<path fill-rule="evenodd" clip-rule="evenodd" d="M182.452 31.9601H176.562V13.2587H182.452V31.9601Z" fill="white"/>
<path d="M206.831 31.953H200.87V16.8682C200.943 16.1458 200.848 15.4162 200.592 14.7366C200.344 14.3955 198.802 14.225 197.665 14.225C196.528 14.225 194.979 14.3813 194.723 14.7011C194.468 15.0208 194.325 15.7669 194.325 16.9464V31.9672H188.435V16.7616C188.435 14.2889 190.943 13.0526 197.672 13.0526C204.401 13.0526 206.838 14.2889 206.838 16.7616V31.953H206.831Z" fill="white"/>
<path d="M220.978 21.977H232.105V29.0255C232.105 30.0914 231.494 30.8658 230.265 31.3419C228.72 31.9767 225.997 32.294 222.093 32.294C218.185 32.294 216.317 31.9885 214.768 31.3774C213.517 30.9014 212.899 30.1127 212.899 29.0255V16.9464C212.899 14.4737 215.393 13.2374 222.093 13.2374C228.794 13.2374 232.105 14.4737 232.105 16.9464V19.7388H225.326V16.9464C225.395 16.2246 225.303 15.4966 225.056 14.8148C224.808 14.4737 223.251 14.3103 222.093 14.3103C220.935 14.3103 219.436 14.4737 219.166 14.8005C218.896 15.1274 218.754 15.8735 218.754 17.0316V28.8479C218.754 29.8498 218.946 30.4964 219.329 30.7948C219.713 31.0932 221.141 31.1643 222.093 31.1643C223.045 31.1643 224.488 31.0435 224.786 30.7948C225.085 30.5461 225.362 29.8143 225.362 28.8195V23.5686H220.978V22.0409V21.977Z" fill="white"/>
<path d="M170.615 31.9672H163.737V22.5667C163.737 22.0196 162.664 21.5435 160.532 21.1456C159.559 20.968 158.763 20.8117 158.116 20.6767V31.9814H152.219V10.3597H158.116V18.1756L166.096 11.127H170.146L161.335 19.2201L162.202 19.3693C163.946 19.6417 165.666 20.0503 167.346 20.5914C169.521 21.2522 170.615 22.1404 170.615 23.2489V31.9387V31.9672Z" fill="white"/>
</g>
<defs>
<clipPath id="clip0_19:17">
<rect width="291.179" height="42" fill="white"/>
</clipPath>
</defs>
</svg>
